REM MD5 bac2d3cad348420119dc702496d79790
FILE "Euro Demo (Future) 97 (Europe).bin" BINARY
  TRACK 01 MODE2/2352
    INDEX 01 00:00:00
  TRACK 02 AUDIO
    INDEX 00 52:04:42
    INDEX 01 52:06:42
  TRACK 03 AUDIO
    INDEX 00 55:16:42
    INDEX 01 55:18:42
REM LEADOUT 58:19:74
